<svg data-v-0dd9719b="" version="1.0" xmlns="http://www.w3.org/2000/svg" xmlns:xlink="http://www.w3.org/1999/xlink" width="100%" height="100%" viewBox="0 0 340.000000 250.000000" preserveAspectRatio="xMidYMid meet" color-interpolation-filters="sRGB" style="margin: auto;"> <rect data-v-0dd9719b="" x="0" y="0" width="100%" height="100%" fill="#ffffff" fill-opacity="1" class="background"></rect> <rect data-v-0dd9719b="" x="0" y="0" width="100%" height="100%" fill="url(#watermark)" fill-opacity="1" class="watermarklayer"></rect> <g data-v-0dd9719b="" fill="#fbbc09" class="icon-text-wrapper icon-svg-group iconsvg" transform="translate(83.23500061035156,68.72726440429688)"><g class="iconsvg-imagesvg" transform="translate(56.76499938964844,0)"><g><rect fill="#fbbc09" fill-opacity="0" stroke-width="2" x="0" y="0" width="60" height="68.69547296833139" class="image-rect"></rect> <svg filter="url(#colors4086219281)" x="0" y="0" width="60" height="68.69547296833139" filtersec="colorsf6825049831" class="image-svg-svg primary" style="overflow: visible;"><svg xmlns="http://www.w3.org/2000/svg" viewBox="-0.022831054404377937 0.0005446672439575195 87.34150695800781 99.99945831298828"><g fill="#333"><path d="M48.78 65.26L47 98.08l-.09 1.76a18.16 18.16 0 0 1-7.4-2.76L8.17 76.63a18.16 18.16 0 0 1-6.23-7A18 18 0 0 1 0 60.55l2-37.34a18.17 18.17 0 0 1 2.23-7.61l29 18.93-.43 7.77A21 21 0 0 0 42.28 61zM87.29 36.55s-1.53 27.82-2 37.24c-.45 1.16-3.93 4.52-8.87 8.8l1.75-44.65A12.5 12.5 0 0 0 72.62 27L35.57 2C42 .56 46.71-.25 47.91.07c7.9 5.17 31.22 20.38 31.23 20.38a18 18 0 0 1 8.15 16.1z"></path><path d="M64.05 40.66l-2.11 53.87c-1.51 1.21-3 2.41-4.57 3.6a18.09 18.09 0 0 1-7.54 1.87l3-55.29a1.47 1.47 0 0 0-.67-1.32L5.83 13.13a18.26 18.26 0 0 1 6-5c1.85-.53 3.73-1 5.6-1.56l44.66 30.21a4.43 4.43 0 0 1 1.96 3.88z"></path><path d="M75.2 37.82l-1.86 47.39c-2.57 2.19-5.41 4.52-8.34 6.89l2-51.32a7.41 7.41 0 0 0-3.26-6.45L21.18 5.58c3.63-1 7.2-1.87 10.48-2.65L71 29.48a9.55 9.55 0 0 1 4.2 8.34z"></path></g></svg></svg> <defs><filter id="colors4086219281"><feColorMatrix type="matrix" values="0 0 0 0 0.19921875  0 0 0 0 0.19921875  0 0 0 0 0.19921875  0 0 0 1 0" class="icon-fecolormatrix"></feColorMatrix></filter> <filter id="colorsf6825049831"><feColorMatrix type="matrix" values="0 0 0 0 0.99609375  0 0 0 0 0.99609375  0 0 0 0 0.99609375  0 0 0 1 0" class="icon-fecolormatrix"></feColorMatrix></filter> <filter id="colorsb5877786056"><feColorMatrix type="matrix" values="0 0 0 0 0  0 0 0 0 0  0 0 0 0 0  0 0 0 1 0" class="icon-fecolormatrix"></feColorMatrix></filter></defs></g></g> <g transform="translate(0,75.69547271728516)"><g data-gra="path-name" fill-rule="" class="tp-name iconsvg-namesvg"><g transform="scale(1)"><g><path d="M8.15-30.03L3.9-30.03 3.9 0 7.51 0Q7.76 0 7.96-0.19 8.15-0.39 8.15-0.64L8.15-0.64 8.15-30.03ZM16.86 0Q17.2 0 17.35-0.15 17.5-0.3 17.5-0.64L17.5-0.64 17.5-12.78Q17.5-15.36 18.34-17.16 19.18-18.96 20.51-19.86 21.84-20.76 23.29-20.76L23.29-20.76Q24.67-20.76 25.87-19.99 27.07-19.22 27.8-17.74 28.53-16.26 28.53-14.2L28.53-14.2 28.53 0 31.83 0Q32.17 0 32.32-0.15 32.47-0.3 32.47-0.64L32.47-0.64 32.47-14.37Q32.47-17.59 31.38-19.8 30.29-22.01 28.46-23.1 26.64-24.19 24.54-24.19L24.54-24.19Q22.39-24.19 20.42-23.12 18.45-22.05 17.12-20.08L17.12-20.08 17.12-24.02 13.56-24.02 13.56 0 16.86 0ZM40.07 0Q40.41 0 40.56-0.15 40.71-0.3 40.71-0.64L40.71-0.64 40.71-12.78Q40.71-15.36 41.55-17.16 42.38-18.96 43.71-19.86 45.04-20.76 46.5-20.76L46.5-20.76Q47.87-20.76 49.08-19.99 50.28-19.22 51.01-17.74 51.73-16.26 51.73-14.2L51.73-14.2 51.73 0 55.04 0Q55.38 0 55.53-0.15 55.68-0.3 55.68-0.64L55.68-0.64 55.68-14.37Q55.68-17.59 54.59-19.8 53.49-22.01 51.67-23.1 49.85-24.19 47.75-24.19L47.75-24.19Q45.6-24.19 43.63-23.12 41.65-22.05 40.32-20.08L40.32-20.08 40.32-24.02 36.76-24.02 36.76 0 40.07 0ZM59.76-12.27Q59.76-8.37 61.09-5.53 62.42-2.7 64.95-1.27 67.48 0.17 70.31 0.17L70.31 0.17Q73.14 0.17 75.63-1.27 78.12-2.7 79.43-5.6 80.73-8.49 80.73-12.61L80.73-12.61Q80.73-16.43 79.4-19.18 78.07-21.92 75.56-23.32 73.06-24.71 70.22-24.71L70.22-24.71Q67.39-24.71 64.9-23.29 62.42-21.88 61.09-19.07 59.76-16.26 59.76-12.27L59.76-12.27ZM63.79-12.27Q63.79-15.19 64.75-17.24 65.72-19.3 67.07-20.33 68.42-21.36 70.22-21.36L70.22-21.36Q71.98-21.36 73.57-20.33 75.16-19.3 75.93-17.27 76.7-15.23 76.7-12.4L76.7-12.4Q76.7-9.44 75.95-7.36 75.2-5.28 73.63-4.23 72.07-3.17 70.27-3.17L70.27-3.17Q68.47-3.17 66.88-4.23 65.29-5.28 64.54-7.34 63.79-9.39 63.79-12.27L63.79-12.27ZM89.18 6.82Q89.53 6.82 89.68 6.67 89.83 6.52 89.83 6.18L89.83 6.18 89.83-3.05Q92.32 0 95.88 0L95.88 0Q98.45 0 100.85-1.61 103.26-3.22 104.74-6.05 106.22-8.88 106.22-12.27L106.22-12.27Q106.22-15.57 105.06-18.32L105.06-18.32Q103.9-20.98 101.5-22.54 99.09-24.11 96.39-24.11L96.39-24.11Q94.38-24.11 92.6-23.21 90.82-22.31 89.49-20.55L89.49-20.55 89.49-24.02 85.84-24.02 85.84 6.82 89.18 6.82ZM89.49-11.97Q89.49-14.93 90.39-17.01 91.29-19.09 92.77-20.14 94.25-21.19 95.88-21.19L95.88-21.19Q97.51-21.19 98.94-20.18 100.38-19.18 101.26-17.16 102.14-15.14 102.14-12.31L102.14-12.31Q102.14-9.48 101.22-7.44 100.3-5.41 98.82-4.38 97.34-3.35 95.66-3.35L95.66-3.35Q94.08-3.35 92.66-4.33 91.24-5.32 90.36-7.27 89.49-9.22 89.49-11.97L89.49-11.97ZM125.86-3.39Q125.99-1.76 126.55-0.51L126.55-0.51 130.54-0.51Q129.68-2.02 129.34-4.46L129.34-4.46Q129.04-6.52 129.04-9.65L129.04-9.65 129.04-11.97Q129.04-13.9 128.95-15.36L128.95-15.36Q128.82-17.85 128.01-19.82L128.01-19.82Q127.24-21.66 125.39-22.82L125.39-22.82Q123.12-24.19 119.43-24.19L119.43-24.19Q116.21-24.19 113.85-22.82L113.85-22.82Q111.23-21.28 110.33-17.72L110.33-17.72 114.28-17.72Q114.97-19.56 116.43-20.25L116.43-20.25Q117.93-20.89 120.16-20.89L120.16-20.89Q122.22-20.89 123.85-19.78L123.85-19.78Q125.52-18.62 125.52-16.17L125.52-16.17 125.52-15.14Q124.06-14.67 120.63-14.16L120.63-14.16Q117.41-13.68 115.1-13.04L115.1-13.04Q112.99-12.48 111.45-10.94L111.45-10.94Q109.95-9.44 109.95-6.61L109.95-6.61Q109.95-3.3 112.22-1.63L112.22-1.63Q114.49 0.04 117.63 0.04L117.63 0.04Q119.69 0.04 121.79-0.73L121.79-0.73Q123.63-1.42 125.86-3.39L125.86-3.39ZM125.52-10.68Q125.52-9.74 125.43-8.45L125.43-8.45Q125.31-7.51 124.92-6.73L124.92-6.73Q124.06-4.98 122.26-4.03L122.26-4.03Q120.37-3.05 118.44-3.05L118.44-3.05Q116.51-3.05 115.31-3.99L115.31-3.99Q114.02-4.98 114.02-6.69L114.02-6.69Q114.02-8.19 115.1-9.14L115.1-9.14Q116.12-10.04 117.63-10.42L117.63-10.42Q118.66-10.68 121.49-11.15L121.49-11.15 123.76-11.54Q124.79-11.71 125.52-12.05L125.52-12.05 125.52-10.68ZM149.89-3.39Q150.01-1.76 150.57-0.51L150.57-0.51 154.56-0.51Q153.7-2.02 153.36-4.46L153.36-4.46Q153.06-6.52 153.06-9.65L153.06-9.65 153.06-11.97Q153.06-13.9 152.97-15.36L152.97-15.36Q152.85-17.85 152.03-19.82L152.03-19.82Q151.26-21.66 149.41-22.82L149.41-22.82Q147.14-24.19 143.45-24.19L143.45-24.19Q140.23-24.19 137.87-22.82L137.87-22.82Q135.26-21.28 134.36-17.72L134.36-17.72 138.3-17.72Q138.99-19.56 140.45-20.25L140.45-20.25Q141.95-20.89 144.18-20.89L144.18-20.89Q146.24-20.89 147.87-19.78L147.87-19.78Q149.54-18.62 149.54-16.17L149.54-16.17 149.54-15.14Q148.08-14.67 144.65-14.16L144.65-14.16Q141.43-13.68 139.12-13.04L139.12-13.04Q137.02-12.48 135.47-10.94L135.47-10.94Q133.97-9.44 133.97-6.61L133.97-6.61Q133.97-3.3 136.24-1.63L136.24-1.63Q138.52 0.04 141.65 0.04L141.65 0.04Q143.71 0.04 145.81-0.73L145.81-0.73Q147.65-1.42 149.89-3.39L149.89-3.39ZM149.54-10.68Q149.54-9.74 149.46-8.45L149.46-8.45Q149.33-7.51 148.94-6.73L148.94-6.73Q148.08-4.98 146.28-4.03L146.28-4.03Q144.39-3.05 142.46-3.05L142.46-3.05Q140.53-3.05 139.33-3.99L139.33-3.99Q138.05-4.98 138.05-6.69L138.05-6.69Q138.05-8.19 139.12-9.14L139.12-9.14Q140.15-10.04 141.65-10.42L141.65-10.42Q142.68-10.68 145.51-11.15L145.51-11.15 147.78-11.54Q148.81-11.71 149.54-12.05L149.54-12.05 149.54-10.68ZM157.99-6.82Q158.81-3.35 161.53-1.59 164.26 0.17 167.69 0.17L167.69 0.17Q170.18 0.17 172.43-0.73 174.68-1.63 176.05-3.32 177.43-5.02 177.43-7.21L177.43-7.21Q177.43-9.44 176.16-10.81 174.9-12.18 173.09-12.83 171.29-13.47 168.46-14.11L168.46-14.11Q166.32-14.63 165.16-15.01 164-15.4 163.21-16.07 162.41-16.73 162.41-17.76L162.41-17.76Q162.41-19.09 163.85-19.93 165.29-20.76 167.22-20.76L167.22-20.76Q168.98-20.76 170.82-19.6 172.66-18.45 173.22-16.99L173.22-16.99 176.44-17.85Q175.75-20.85 173.22-22.44 170.69-24.02 167.47-24.02L167.47-24.02Q165.2-24.02 163.16-23.23 161.12-22.44 159.86-20.89 158.59-19.35 158.59-17.29L158.59-17.29Q158.59-15.01 159.82-13.68 161.04-12.35 162.78-11.71 164.51-11.07 167.3-10.47L167.3-10.47Q169.4-10 170.58-9.61 171.76-9.22 172.56-8.54 173.35-7.85 173.35-6.78L173.35-6.78Q173.35-5.1 171.74-4.08 170.13-3.05 167.99-3.05L167.99-3.05Q166.02-3.05 163.96-4.44 161.9-5.83 161.25-7.68L161.25-7.68 157.99-6.82Z" transform="translate(-3.9000000953674316, 30.030000686645508)"></path></g> <!----> <!----> <!----> <!----> <!----> <!----> <!----></g></g> <!----></g></g><defs v-gra="od"></defs></svg>